<?xml version="1.0" standalone="no"?>
<!DOCTYPE svg PUBLIC "-//W3C//DTD SVG 20010904//EN"
 "http://www.w3.org/TR/2001/REC-SVG-20010904/DTD/svg10.dtd">
<svg version="1.0" xmlns="http://www.w3.org/2000/svg"
 width="450.000000pt" height="457.000000pt" viewBox="0 0 450.000000 457.000000"
 preserveAspectRatio="xMidYMid meet">

<g transform="translate(0.000000,457.000000) scale(0.100000,-0.100000)"
fill="#000000" stroke="none">
<circle r="2250" cx="2250" cy="2274" fill="white" />
<path d="M1958 4545 c-392 -54 -722 -188 -1033 -422 -361 -271 -637 -651 -787
-1081 -15 -46 -25 -88 -22 -94 4 -6 20 26 37 71 16 45 31 81 33 79 1 -2 -14
-58 -35 -124 -40 -123 -72 -269 -91 -407 -9 -75 -15 -325 -6 -316 2 2 9 65 16
139 14 163 42 332 75 460 26 99 105 324 111 317 2 -2 -10 -41 -27 -88 -79
-215 -126 -465 -133 -704 l-5 -150 14 155 c19 219 31 294 75 465 48 187 91
300 175 459 116 219 260 406 431 561 357 322 675 475 1171 560 159 28 447 17
648 -25 335 -69 609 -191 865 -385 163 -124 294 -253 395 -389 236 -321 363
-618 421 -991 19 -123 21 -508 3 -599 -6 -28 -12 -71 -15 -96 -15 -125 -96
-396 -163 -543 -81 -178 -223 -393 -370 -557 -89 -100 -65 -83 73 50 69 67 93
86 83 64 -71 -141 -351 -400 -589 -545 -74 -45 -98 -65 -45 -38 55 28 -7 -14
-88 -60 -49 -28 -86 -51 -82 -51 5 0 57 25 117 54 305 153 556 364 766 642 76
102 145 215 137 227 -4 6 -1 7 7 2 10 -6 12 -4 7 9 -4 9 -3 15 2 12 5 -3 12 1
15 10 4 9 2 13 -5 8 -8 -4 -7 0 0 15 7 11 16 21 22 21 6 0 7 5 4 10 -3 6 -1
10 4 10 6 0 10 3 9 8 -1 4 19 58 46 121 134 315 191 589 199 946 2 99 1 167
-3 150 -4 -16 -6 13 -6 65 1 52 -2 120 -6 150 -7 53 -6 53 7 -10 54 -254 38
-652 -37 -945 -11 -44 -20 -90 -20 -102 0 -13 -5 -23 -10 -23 -5 0 -6 -4 -3
-10 8 -12 -72 -234 -85 -238 -6 -2 -8 -8 -4 -13 3 -5 0 -9 -6 -9 -6 0 -8 -5
-5 -10 3 -6 1 -10 -5 -10 -6 0 -9 -4 -5 -9 7 -12 -15 -62 -25 -56 -5 3 -11 -2
-14 -11 -3 -9 -2 -12 5 -8 18 11 -22 -60 -45 -79 -11 -10 -15 -16 -8 -12 21
11 -4 -35 -32 -58 -11 -10 -14 -16 -6 -12 13 6 13 5 0 -7 -8 -7 -16 -20 -18
-28 -5 -20 -84 -131 -158 -220 -80 -96 -247 -260 -346 -337 -329 -260 -759
-429 -1183 -466 -36 -3 -36 -4 10 -5 58 -2 220 20 318 44 37 9 70 14 72 12 14
-14 -331 -77 -500 -91 -27 -3 22 -3 110 -2 172 3 262 17 463 76 760 221 1353
837 1548 1605 53 213 68 339 68 589 0 235 -12 346 -60 563 -98 440 -352 854
-717 1168 -342 294 -755 480 -1197 540 -130 17 -431 17 -562 -1z m610 -32
c-10 -2 -26 -2 -35 0 -10 3 -2 5 17 5 19 0 27 -2 18 -5z m49 -9 c-3 -3 -12 -4
-19 -1 -8 3 -5 6 6 6 11 1 17 -2 13 -5z m100 -20 c-3 -3 -12 -4 -19 -1 -8 3
-5 6 6 6 11 1 17 -2 13 -5z m40 -10 c-3 -3 -12 -4 -19 -1 -8 3 -5 6 6 6 11 1
17 -2 13 -5z m40 -10 c-3 -3 -12 -4 -19 -1 -8 3 -5 6 6 6 11 1 17 -2 13 -5z
m106 -30 c43 -14 77 -28 74 -30 -2 -2 -41 9 -88 25 -46 16 -80 30 -74 30 5 1
45 -11 88 -25z m117 -44 c8 -5 11 -10 5 -10 -5 0 -17 5 -25 10 -8 5 -10 10 -5
10 6 0 17 -5 25 -10z m50 -20 c8 -5 11 -10 5 -10 -5 0 -17 5 -25 10 -8 5 -10
10 -5 10 6 0 17 -5 25 -10z m125 -60 c3 -6 -1 -7 -9 -4 -18 7 -21 14 -7 14 6
0 13 -4 16 -10z m115 -66 c0 -2 -9 0 -20 6 -11 6 -20 13 -20 16 0 2 9 0 20 -6
11 -6 20 -13 20 -16z m133 -83 c7 -8 -7 -2 -30 14 -24 15 -43 30 -43 32 0 7
61 -31 73 -46z m113 -83 c4 -7 -9 1 -29 16 -20 16 -37 30 -37 33 0 7 58 -36
66 -49z m119 -99 c17 -18 0 -6 -37 26 -38 32 -68 60 -68 63 0 7 75 -56 105
-89z m86 -76 c13 -16 12 -17 -3 -4 -17 13 -22 21 -14 21 2 0 10 -8 17 -17z
m327 -416 c86 -142 212 -417 212 -459 0 -7 -23 43 -51 112 -50 126 -115 254
-188 375 -22 36 -36 63 -31 60 5 -3 31 -43 58 -88z m239 -559 c-3 -8 -6 -5 -6
6 -1 11 2 17 5 13 3 -3 4 -12 1 -19z m20 -70 c-3 -8 -6 -5 -6 6 -1 11 2 17 5
13 3 -3 4 -12 1 -19z m10 -40 c-3 -8 -6 -5 -6 6 -1 11 2 17 5 13 3 -3 4 -12 1
-19z m10 -50 c-3 -8 -6 -5 -6 6 -1 11 2 17 5 13 3 -3 4 -12 1 -19z m10 -50
c-3 -8 -6 -5 -6 6 -1 11 2 17 5 13 3 -3 4 -12 1 -19z m80 -850 c-3 -7 -5 -2
-5 12 0 14 2 19 5 13 2 -7 2 -19 0 -25z m-13 -62 c-3 -21 -8 -35 -11 -32 -2 2
-1 20 3 40 3 21 8 35 11 32 2 -2 1 -20 -3 -40z m-17 -68 c-3 -8 -6 -5 -6 6 -1
11 2 17 5 13 3 -3 4 -12 1 -19z m-13 -52 c-3 -15 -8 -25 -11 -23 -2 3 -1 17 3
31 3 15 8 25 11 23 2 -3 1 -17 -3 -31z m-225 -528 c-118 -220 -339 -480 -564
-663 -82 -66 -205 -151 -205 -142 0 2 51 43 113 90 268 203 458 408 609 655
48 76 74 111 47 60z m-799 -823 c0 -2 -10 -9 -22 -15 -22 -11 -22 -10 -4 4 21
17 26 19 26 11z"/>
<path d="M1705 3459 c-165 -149 -300 -275 -300 -279 0 -4 135 -130 300 -280
l300 -272 47 53 47 54 -22 21 c-12 11 -120 110 -239 218 -120 109 -218 201
-218 206 0 5 108 106 240 225 l240 217 -47 54 c-26 30 -47 54 -48 54 0 0 -135
-122 -300 -271z"/>
<path d="M2459 3702 c-14 -15 -35 -39 -47 -53 l-23 -27 240 -218 c133 -119
241 -220 241 -224 0 -4 -108 -105 -240 -225 l-240 -217 19 -27 c11 -14 32 -38
48 -53 l29 -28 301 273 c166 149 302 274 302 277 -1 4 -245 226 -548 497 l-58
52 -24 -27z"/>
<path d="M1818 2344 c-20 -6 -24 -36 -38 -299 -15 -281 -14 -274 -70 -358 -90
-134 -203 -222 -252 -196 -49 26 -54 193 -18 590 25 264 25 259 -35 259 -42 0
-55 -11 -60 -51 -52 -396 -58 -682 -16 -777 34 -76 69 -102 137 -102 92 0 162
41 244 143 24 31 47 54 52 51 4 -3 8 -40 8 -82 0 -42 4 -82 8 -89 10 -16 57
-26 86 -19 l24 6 -6 175 c-3 117 1 269 13 455 10 154 16 282 13 285 -8 8 -70
14 -90 9z"/>
<path d="M826 2328 c-3 -7 -6 -218 -8 -470 l-4 -456 29 -6 c39 -8 219 -8 296
0 64 7 88 25 75 58 -5 14 -28 16 -143 16 -76 0 -140 2 -142 4 -2 2 0 129 4
280 5 152 5 345 0 429 l-8 152 -48 3 c-32 2 -49 -1 -51 -10z"/>
<path d="M2069 2338 c-1 -2 -3 -181 -6 -398 -3 -217 -6 -422 -6 -455 l-2 -60
43 -3 c24 -2 49 2 56 8 10 7 16 59 21 170 8 185 3 181 109 81 61 -59 108 -137
135 -230 19 -61 41 -82 65 -62 9 8 16 26 16 41 0 36 -34 133 -65 186 -36 61
-119 149 -176 186 -27 17 -49 33 -49 34 0 2 65 96 144 211 177 258 171 246
145 269 -15 14 -24 16 -37 8 -9 -6 -75 -95 -147 -199 l-130 -188 -3 188 c-1
119 -7 193 -13 202 -9 10 -96 20 -100 11z"/>
<path d="M2819 2320 c-110 -58 -166 -200 -190 -487 -8 -97 -8 -159 0 -235 17
-151 25 -174 62 -182 17 -3 42 -3 56 0 22 6 24 10 18 43 -11 54 -24 162 -25
194 l0 27 109 0 c60 0 116 -3 125 -6 18 -7 20 -69 7 -207 -8 -89 0 -101 62
-95 58 5 61 25 65 370 6 428 -12 533 -98 579 -47 26 -142 25 -191 -1z m121
-40 c10 -5 23 -25 29 -42 14 -44 31 -246 31 -382 l0 -108 -125 4 c-68 2 -126
6 -129 9 -8 8 13 220 29 294 26 117 91 235 131 235 8 0 24 -4 34 -10z"/>
<path d="M3405 2311 c-82 -37 -153 -154 -162 -267 -10 -118 25 -165 189 -246
111 -55 123 -73 123 -183 0 -74 -23 -139 -57 -159 -47 -29 -105 38 -139 159
l-16 60 -48 3 c-26 2 -51 0 -56 -5 -21 -21 38 -173 88 -225 58 -60 198 -77
261 -32 73 53 107 226 62 318 -19 41 -30 49 -125 96 -112 54 -158 97 -169 154
-9 47 10 132 45 204 33 68 67 94 97 75 25 -15 63 -128 70 -208 l7 -70 49 0
c47 0 50 2 58 30 16 58 -15 178 -63 245 -50 69 -133 88 -214 51z"/>
<path d="M280 1210 c6 -11 13 -20 16 -20 2 0 0 9 -6 20 -6 11 -13 20 -16 20
-2 0 0 -9 6 -20z"/>
<path d="M1105 1185 c31 -47 39 -88 33 -180 -6 -86 -33 -148 -68 -153 -32 -5
-44 11 -50 71 -4 44 -8 52 -27 55 -20 3 -23 -1 -23 -28 0 -23 -10 -42 -35 -67
-30 -30 -37 -33 -56 -23 -21 12 -21 16 -16 133 3 67 9 134 13 150 5 23 3 27
-14 27 -31 0 -46 -63 -46 -191 -1 -92 2 -110 18 -128 27 -30 89 -29 121 3 l23
24 21 -24 c16 -19 31 -24 66 -24 82 0 120 66 120 210 0 72 -4 92 -25 130 -19
34 -32 46 -53 48 l-27 3 25 -36z"/>
<path d="M1316 1178 c-62 -62 -96 -213 -63 -278 16 -31 73 -70 104 -70 27 0
73 41 73 65 0 24 -36 17 -48 -10 -7 -14 -20 -25 -31 -25 -26 0 -61 46 -61 81
0 28 2 29 45 29 25 0 45 5 45 10 0 6 -20 10 -45 10 -54 0 -56 9 -25 98 36 101
81 120 97 41 9 -44 19 -54 41 -40 11 6 11 17 2 49 -20 76 -80 94 -134 40z"/>
<path d="M2157 1180 c-67 -58 -101 -214 -64 -286 16 -32 69 -64 105 -64 25 0
58 28 67 58 10 33 -32 30 -47 -3 -16 -35 -46 -29 -76 14 -32 49 -26 65 26 69
54 4 54 20 0 24 -41 3 -43 4 -40 33 4 36 48 136 65 147 25 16 37 7 50 -39 18
-62 42 -65 41 -5 -1 49 -16 69 -60 78 -26 5 -38 0 -67 -26z"/>
<path d="M2345 1198 c-3 -8 -4 -90 -3 -183 3 -167 3 -170 25 -173 22 -3 22 -1
25 131 l3 135 76 -131 c53 -92 82 -133 96 -135 19 -3 20 4 26 110 4 62 7 143
7 181 0 65 -1 67 -25 67 l-24 0 -3 -135 -3 -136 -80 138 c-76 130 -107 164
-120 131z"/>
<path d="M2971 1194 c-42 -30 -61 -89 -61 -192 0 -63 5 -102 15 -122 34 -65
144 -58 178 11 23 47 33 181 18 236 -20 73 -94 106 -150 67z m96 -51 c19 -46
14 -203 -8 -248 -18 -39 -71 -48 -89 -15 -15 28 -24 146 -16 203 14 95 83 131
113 60z"/>
<path d="M3196 1198 c-3 -7 -7 -93 -9 -191 -5 -177 -5 -178 17 -175 18 3 21
11 24 57 l3 54 59 -58 c36 -35 63 -55 70 -50 8 5 -5 25 -41 61 -29 29 -51 55
-48 57 2 3 19 12 37 21 91 47 93 165 2 211 -40 20 -110 28 -114 13z m87 -29
c54 -25 63 -109 18 -158 -31 -33 -78 -44 -67 -15 3 9 6 54 6 100 0 47 4 84 10
84 5 0 20 -5 33 -11z"/>
<path d="M3437 1204 c-4 -4 -7 -88 -7 -186 l0 -179 22 3 c22 3 22 5 19 138 -2
97 1 132 8 124 6 -5 44 -66 84 -135 54 -94 77 -125 95 -127 22 -3 22 -3 22
131 0 74 3 155 6 181 7 45 6 46 -20 46 l-26 0 0 -130 c0 -71 -3 -130 -7 -130
-5 0 -42 60 -84 133 -71 122 -94 149 -112 131z"/>
<path d="M1502 1188 c14 -11 16 -34 11 -175 -3 -90 -10 -163 -15 -163 -5 0 -6
-4 -3 -10 3 -5 22 -10 41 -10 19 0 34 5 34 10 0 6 -4 10 -8 10 -12 0 -2 322
10 338 8 9 0 12 -38 12 -40 0 -45 -2 -32 -12z"/>
<path d="M1663 1178 c-26 -28 -43 -70 -43 -107 0 -32 30 -64 82 -85 29 -13 38
-23 43 -49 8 -43 -10 -89 -33 -85 -9 2 -26 22 -37 46 -13 28 -26 42 -38 42
-17 0 -19 -5 -13 -32 10 -51 42 -78 92 -78 51 0 74 25 74 81 0 55 -8 68 -61
94 -56 29 -63 37 -61 81 1 36 27 94 41 94 16 0 32 -28 39 -71 6 -35 12 -44 27
-44 17 0 20 6 19 38 -3 82 -83 127 -131 75z"/>
<path d="M1893 1178 c-31 -34 -43 -63 -43 -101 0 -39 31 -73 88 -96 36 -15 47
-49 31 -98 -15 -45 -38 -40 -64 15 -13 28 -26 42 -38 42 -17 0 -19 -5 -13 -32
10 -49 43 -78 88 -78 51 0 78 27 78 79 0 58 -7 69 -61 96 -27 14 -53 34 -59
45 -12 23 0 83 24 115 13 18 16 19 31 4 8 -8 19 -35 23 -60 6 -35 12 -44 27
-44 17 0 20 6 19 38 -3 81 -83 127 -131 75z"/>
<path d="M2660 1021 c0 -173 1 -181 20 -181 16 0 21 9 26 50 l7 50 44 0 45 0
-4 -52 c-3 -47 -1 -53 18 -56 20 -3 21 2 27 134 11 228 11 236 -15 232 -22 -3
-23 -8 -28 -113 l-5 -110 -42 -3 -42 -3 -3 113 c-3 109 -4 113 -25 116 l-23 3
0 -180z"/>
<path d="M325 1135 c147 -261 392 -526 651 -705 41 -28 74 -49 74 -46 0 3 -21
19 -47 37 -227 153 -454 387 -611 629 -83 127 -111 162 -67 85z"/>
<path d="M3615 738 l-50 -53 53 50 c28 27 52 51 52 52 0 8 -9 -1 -55 -49z"/>
<path d="M3539 673 c-13 -16 -12 -17 4 -4 16 13 21 21 13 21 -2 0 -10 -8 -17
-17z"/>
<path d="M1220 365 c0 -7 161 -87 166 -83 2 2 -35 23 -81 46 -47 23 -85 40
-85 37z"/>
<path d="M1410 270 c8 -5 20 -10 25 -10 6 0 3 5 -5 10 -8 5 -19 10 -25 10 -5
0 -3 -5 5 -10z"/>
<path d="M1460 250 c8 -5 20 -10 25 -10 6 0 3 5 -5 10 -8 5 -19 10 -25 10 -5
0 -3 -5 5 -10z"/>
<path d="M1510 150 c8 -5 20 -10 25 -10 6 0 3 5 -5 10 -8 5 -19 10 -25 10 -5
0 -3 -5 5 -10z"/>
<path d="M1560 130 c8 -5 22 -9 30 -9 10 0 8 3 -5 9 -27 12 -43 12 -25 0z"/>
<path d="M1640 105 c19 -7 44 -14 55 -14 11 0 0 7 -25 15 -57 17 -77 17 -30
-1z"/>
<path d="M2493 83 c9 -2 23 -2 30 0 6 3 -1 5 -18 5 -16 0 -22 -2 -12 -5z"/>
<path d="M2373 73 c15 -2 37 -2 50 0 12 2 0 4 -28 4 -27 0 -38 -2 -22 -4z"/>
<path d="M2028 43 c12 -2 30 -2 40 0 9 3 -1 5 -23 4 -22 0 -30 -2 -17 -4z"/>
<path d="M2223 33 c26 -2 68 -2 95 0 26 2 4 3 -48 3 -52 0 -74 -1 -47 -3z"/>
</g>
</svg>
